<svg width="119" height="70" viewBox="0 0 119 70" fill="none" xmlns="http://www.w3.org/2000/svg">
<path d="M97.0755 70C109.111 70 118.868 60.2432 118.868 48.2076C118.868 36.6984 109.946 27.2731 98.6413 26.4705C94.9743 17.1573 85.8984 10.566 75.283 10.566C72.5983 10.566 70.0121 10.9876 67.5869 11.7682C62.5662 4.64961 54.2789 0 44.9057 0C29.8659 0 17.6221 11.9706 17.1821 26.9037C7.36071 29.0191 0 37.7537 0 48.2076C0 60.2432 9.75681 70 21.7925 70H97.0755Z" fill="url(#paint0_linear_251_3709)"/>
<path d="M50.1299 49V39.3479H46.8492V37.2796H50.1299V34.7121C50.1299 33.9989 50.3439 33.4283 50.7718 33.0004C51.1997 32.5725 51.7703 32.3585 52.4835 32.3585H55.5028V34.4268H53.268C52.8084 34.4268 52.5786 34.6645 52.5786 35.14V37.2796H55.9545V39.3479H52.5786V49H50.1299ZM56.8222 43.1992V42.8426C56.8222 41.6064 57.0679 40.5525 57.5592 39.6808C58.0664 38.8091 58.732 38.1355 59.5562 37.66C60.3803 37.1845 61.2837 36.9468 62.2664 36.9468C63.4075 36.9468 64.2792 37.1608 64.8815 37.5887C65.4996 38.0166 65.9513 38.4762 66.2365 38.9675H66.6169V37.2796H68.9943V51.4011C68.9943 52.1143 68.7803 52.6849 68.3524 53.1128C67.9403 53.5408 67.3698 53.7547 66.6407 53.7547H58.7479V51.6151H65.8799C66.3396 51.6151 66.5694 51.3774 66.5694 50.9019V47.1694H66.189C66.0147 47.4547 65.769 47.7479 65.452 48.0491C65.135 48.3502 64.715 48.5958 64.192 48.786C63.6849 48.9762 63.043 49.0713 62.2664 49.0713C61.2837 49.0713 60.3724 48.8415 59.5324 48.3819C58.7082 47.9064 58.0505 47.2328 57.5592 46.3611C57.0679 45.4736 56.8222 44.4196 56.8222 43.1992ZM62.932 46.9317C63.9939 46.9317 64.8656 46.5989 65.5471 45.9332C66.2445 45.2517 66.5932 44.3166 66.5932 43.1279V42.914C66.5932 41.6936 66.2524 40.7585 65.5709 40.1087C64.8894 39.443 64.0098 39.1102 62.932 39.1102C61.886 39.1102 61.0143 39.443 60.3169 40.1087C59.6354 40.7585 59.2947 41.6936 59.2947 42.914V43.1279C59.2947 44.3166 59.6354 45.2517 60.3169 45.9332C61.0143 46.5989 61.886 46.9317 62.932 46.9317Z" fill="white"/>
<defs>
<linearGradient id="paint0_linear_251_3709" x1="31.0377" y1="99.717" x2="90.4717" y2="-5.73743e-06" gradientUnits="userSpaceOnUse">
<stop stop-color="#F0F8FF"/>
<stop offset="0.445" stop-color="#6CB4EE"/>
<stop offset="0.75" stop-color="#007FFF"/>
<stop offset="1" stop-color="#00308F"/>
</linearGradient>
</defs>
</svg>
