<svg width="166" height="98" viewBox="0 0 166 98" fill="none" xmlns="http://www.w3.org/2000/svg">
<path d="M62.4912 2C74.8574 2.00005 85.7917 8.13162 92.4199 17.5293L93.2676 18.7314L94.667 18.2803C97.8462 17.257 101.239 16.7041 104.765 16.7041C118.688 16.7042 130.597 25.3479 135.409 37.5693L135.871 38.7422L137.128 38.8311C151.82 39.8742 163.418 52.1269 163.418 67.0859C163.418 82.7303 150.735 95.4121 135.091 95.4121H30.3262C14.682 95.4119 2 82.7301 2 67.0859C2.00001 53.5002 11.5665 42.144 24.332 39.3945L25.8633 39.0645L25.9102 37.498C26.4909 17.795 42.6467 2 62.4912 2Z" fill="white" stroke="black" stroke-width="4"/>
</svg>
